<svg xmlns="http://www.w3.org/2000/svg" xml:space="preserve" width="1000" height="1000" viewBox="272.5 -135.5 1000 1000"><g><ellipse rx="208.822" ry="120.564" style="stroke:#fff;stroke-opacity:0;stroke-width:1;stroke-dasharray:none;stroke-linecap:butt;stroke-dashoffset:0;stroke-linejoin:miter;stroke-miterlimit:4;fill:#f5f5f5;fill-rule:nonzero;opacity:1" transform="translate(772.5 570.92) scale(2.081)" vector-effect="non-scaling-stroke"/><ellipse rx="45.158" ry="26.072" style="stroke:#fff;stroke-opacity:0;stroke-width:1;stroke-dasharray:none;stroke-linecap:butt;stroke-dashoffset:0;stroke-linejoin:miter;stroke-miterlimit:4;fill:#e0e0e0;fill-rule:nonzero;opacity:1" transform="translate(930.113 670.864) scale(2.081)" vector-effect="non-scaling-stroke"/><path d="m259.302 327.05-120.79 69.75c-3.398 1.962-9.334 1.716-13.258-.55L82.37 371.491c-3.924-2.266-4.35-5.693-.952-7.655l120.79-69.75c3.398-1.962 9.334-1.716 13.258.55l42.884 24.759c3.924 2.265 4.351 5.693.952 7.655z" style="stroke:#fff;stroke-opacity:0;stroke-width:1;stroke-dasharray:none;stroke-linecap:butt;stroke-dashoffset:0;stroke-linejoin:miter;stroke-miterlimit:4;fill:#e0e0e0;fill-rule:nonzero;opacity:1" transform="translate(341.654 -193.437) scale(2.081)" vector-effect="non-scaling-stroke"/><path d="M403.145 359.919a.433.433 0 0 1-.43-.396c-.019-.235-1.729-23.672 14.554-39.063a.431.431 0 1 1 .593.627c-15.977 15.101-14.306 38.134-14.286 38.365a.432.432 0 0 1-.431.467z" style="stroke:#fff;stroke-opacity:0;stroke-width:1;stroke-dasharray:none;stroke-linecap:butt;stroke-dashoffset:0;stroke-linejoin:miter;stroke-miterlimit:4;fill:#fff;fill-rule:nonzero;opacity:1" transform="translate(293.689 -193.434) scale(2.081)" vector-effect="non-scaling-stroke"/><path d="M405.964 339.834a.432.432 0 0 1-.431-.4c-.456-6.148-4.734-9.312-4.778-9.343a.431.431 0 0 1 .505-.701c.189.137 4.647 3.416 5.135 9.98a.432.432 0 0 1-.398.462l-.033.002z" style="stroke:#fff;stroke-opacity:0;stroke-width:1;stroke-dasharray:none;stroke-linecap:butt;stroke-dashoffset:0;stroke-linejoin:miter;stroke-miterlimit:4;fill:#fff;fill-rule:nonzero;opacity:1" transform="translate(293.688 -193.432) scale(2.081)" vector-effect="non-scaling-stroke"/><path d="M404.803 343.833a.431.431 0 0 1-.321-.719c.17-.19 4.268-4.62 13.746-3.318a.433.433 0 0 1 .369.486.434.434 0 0 1-.486.369c-8.992-1.234-12.948 2.999-12.987 3.04a.434.434 0 0 1-.321.142z" style="stroke:#fff;stroke-opacity:0;stroke-width:1;stroke-dasharray:none;stroke-linecap:butt;stroke-dashoffset:0;stroke-linejoin:miter;stroke-miterlimit:4;fill:#fff;fill-rule:nonzero;opacity:1" transform="translate(293.689 -193.432) scale(2.081)" vector-effect="non-scaling-stroke"/><path d="m101.124 337.943-4.699 9.949s-4.742-15.344-15.684-26.527c-4.13-4.221-7.513-5.401-9.01-6.255-1.497-.855-11.676-5.519-10.033-12.034 1.643-6.516 16.404-5.978 29.438 13.877 6.691 10.188 9.988 20.99 9.988 20.99z" style="stroke:#fff;stroke-opacity:0;stroke-width:1;stroke-dasharray:none;stroke-linecap:butt;stroke-dashoffset:0;stroke-linejoin:miter;stroke-miterlimit:4;fill:#03989e;fill-rule:nonzero;opacity:1" transform="translate(341.65 -193.437) scale(2.081)" vector-effect="non-scaling-stroke"/><path d="m101.124 337.943-4.699 9.949s-4.742-15.344-15.684-26.527c-4.13-4.221-7.513-5.401-9.01-6.255-1.497-.855-11.676-5.519-10.033-12.034 1.643-6.516 16.404-5.978 29.438 13.877 6.691 10.188 9.988 20.99 9.988 20.99z" style="stroke:#fff;stroke-opacity:0;stroke-width:1;stroke-dasharray:none;stroke-linecap:butt;stroke-dashoffset:0;stroke-linejoin:miter;stroke-miterlimit:4;fill:#1b1b1b;fill-rule:nonzero;opacity:.5" transform="translate(341.65 -193.437) scale(2.081)" vector-effect="non-scaling-stroke"/><path d="M98.939 343a.432.432 0 0 1-.418-.324c-.026-.101-2.7-10.228-11.849-23.174-9.088-12.862-20.607-15.087-20.723-15.108a.433.433 0 0 1 .154-.85c.118.021 11.971 2.293 21.273 15.459 9.247 13.087 11.953 23.355 11.979 23.458a.43.43 0 0 1-.416.539z" style="stroke:#fff;stroke-opacity:0;stroke-width:1;stroke-dasharray:none;stroke-linecap:butt;stroke-dashoffset:0;stroke-linejoin:miter;stroke-miterlimit:4;fill:#fff;fill-rule:nonzero;opacity:1" transform="translate(341.651 -193.437) scale(2.081)" vector-effect="non-scaling-stroke"/><path d="M97.498 345.685 89.8 362.216s-6.528 3.211-9.924-2.677c-3.395-5.888-1.893-8.861-6.58-9.247-4.687-.385-5.573-.015-7.085-2.516-1.512-2.501-.618-4.663-.513-6.139.104-1.476.848-4.934-2.64-6.804s-7.438-3.276-5.352-6.672c1.245-2.027 4.942-3.11 8.4-2.366 3.458.744 6.155 1.133 8.386.321 2.231-.812 6.203-3.49 8.316-.139 2.113 3.352 2.043 5.06 3.831 5.963 3.368 1.7 10.742-1.216 10.859 13.745z" style="stroke:#fff;stroke-opacity:0;stroke-width:1;stroke-dasharray:none;stroke-linecap:butt;stroke-dashoffset:0;stroke-linejoin:miter;stroke-miterlimit:4;fill:#03989e;fill-rule:nonzero;opacity:1" transform="translate(341.65 -193.436) scale(2.081)" vector-effect="non-scaling-stroke"/><path d="M97.498 345.685 89.8 362.216s-6.528 3.211-9.924-2.677c-3.395-5.888-1.893-8.861-6.58-9.247-4.687-.385-5.573-.015-7.085-2.516-1.512-2.501-.618-4.663-.513-6.139.104-1.476.848-4.934-2.64-6.804s-7.438-3.276-5.352-6.672c1.245-2.027 4.942-3.11 8.4-2.366 3.458.744 6.155 1.133 8.386.321 2.231-.812 6.203-3.49 8.316-.139 2.113 3.352 2.043 5.06 3.831 5.963 3.368 1.7 10.742-1.216 10.859 13.745z" style="stroke:#fff;stroke-opacity:0;stroke-width:1;stroke-dasharray:none;stroke-linecap:butt;stroke-dashoffset:0;stroke-linejoin:miter;stroke-miterlimit:4;fill:#1b1b1b;fill-rule:nonzero;opacity:.2" transform="translate(341.65 -193.436) scale(2.081)" vector-effect="non-scaling-stroke"/><path d="M94.363 352.849a.433.433 0 0 1-.374-.216c-.115-.201-11.809-20.116-33.533-23.486a.432.432 0 1 1 .133-.852c22.142 3.434 34.031 23.704 34.148 23.908a.43.43 0 0 1-.374.646z" style="stroke:#fff;stroke-opacity:0;stroke-width:1;stroke-dasharray:none;stroke-linecap:butt;stroke-dashoffset:0;stroke-linejoin:miter;stroke-miterlimit:4;fill:#fff;fill-rule:nonzero;opacity:1" transform="translate(341.652 -193.434) scale(2.081)" vector-effect="non-scaling-stroke"/><path d="M80.646 337.909a.432.432 0 0 1-.372-.214c-3.324-5.681-1.515-10.911-1.436-11.131a.431.431 0 0 1 .813.29c-.018.05-1.746 5.083 1.367 10.405a.43.43 0 0 1-.372.65z" style="stroke:#fff;stroke-opacity:0;stroke-width:1;stroke-dasharray:none;stroke-linecap:butt;stroke-dashoffset:0;stroke-linejoin:miter;stroke-miterlimit:4;fill:#fff;fill-rule:nonzero;opacity:1" transform="translate(341.653 -193.434) scale(2.081)" vector-effect="non-scaling-stroke"/><path d="M71.061 345.509a.433.433 0 0 1-.291-.751c7.063-6.448 12.956-5.124 13.202-5.066a.43.43 0 0 1 .318.519.427.427 0 0 1-.519.32c-.058-.013-5.717-1.255-12.42 4.864a.423.423 0 0 1-.29.114z" style="stroke:#fff;stroke-opacity:0;stroke-width:1;stroke-dasharray:none;stroke-linecap:butt;stroke-dashoffset:0;stroke-linejoin:miter;stroke-miterlimit:4;fill:#fff;fill-rule:nonzero;opacity:1" transform="translate(341.652 -193.432) scale(2.081)" vector-effect="non-scaling-stroke"/><path d="M0 .001v-.002z" style="stroke:#fff;stroke-opacity:0;stroke-width:1;stroke-dasharray:none;stroke-linecap:butt;stroke-dashoffset:0;stroke-linejoin:miter;stroke-miterlimit:4;fill:#37474f;fill-rule:nonzero;opacity:1" transform="translate(754.872 -63.794) scale(2.081)" vector-effect="non-scaling-stroke"/><path d="M97.608 136.505a16.595 16.595 0 0 1 8.297-14.371l105.519-60.921c3.117-1.8 6.898-.111 7.893 3.06a9.407 9.407 0 0 0-4.341-5.97l-.376-.224a16.964 16.964 0 0 0-8.681-2.389v.002a5.38 5.38 0 0 0-2.783.735l-105.519 60.92a16.594 16.594 0 0 0-8.297 14.371v228.194c0 4.183 4.528 6.797 8.151 4.706l.137-.079V136.505z" style="stroke:#fff;stroke-opacity:0;stroke-width:1;stroke-dasharray:none;stroke-linecap:butt;stroke-dashoffset:0;stroke-linejoin:miter;stroke-miterlimit:4;fill:#37474f;fill-rule:nonzero;opacity:1" transform="translate(341.653 -193.462) scale(2.081)" vector-effect="non-scaling-stroke"/><path d="m211.277 308.483-105.519 60.921c-3.623 2.091-8.151-.523-8.151-4.706V136.505a16.595 16.595 0 0 1 8.297-14.371l105.519-60.921c3.622-2.091 8.15.523 8.15 4.706v228.194a16.59 16.59 0 0 1-8.296 14.37z" style="stroke:#fff;stroke-opacity:0;stroke-width:1;stroke-dasharray:none;stroke-linecap:butt;stroke-dashoffset:0;stroke-linejoin:miter;stroke-miterlimit:4;fill:#455a64;fill-rule:nonzero;opacity:1" transform="translate(341.655 -193.464) scale(2.081)" vector-effect="non-scaling-stroke"/><path d="M97.608 364.699V136.505c0-2.53.581-4.977 1.64-7.182l-8.159-5.053a16.572 16.572 0 0 0-1.769 7.448v230.1c0 1.842.97 3.548 2.553 4.491l4.207 2.505a9.415 9.415 0 0 0 4.819 1.326h2.077v-.002c-2.81-.038-5.368-2.295-5.368-5.439z" style="stroke:#fff;stroke-opacity:0;stroke-width:1;stroke-dasharray:none;stroke-linecap:butt;stroke-dashoffset:0;stroke-linejoin:miter;stroke-miterlimit:4;fill:#263238;fill-rule:nonzero;opacity:1" transform="translate(341.654 -193.456) scale(2.081)" vector-effect="non-scaling-stroke"/><path d="M207.645 83.146v191.799a14.652 14.652 0 0 1-7.327 12.69l-93.179 53.797a4.753 4.753 0 0 1-2.311.641c1.08 2.501 4.208 3.745 6.808 2.244l93.179-53.797a14.654 14.654 0 0 0 7.327-12.69V87.932c.001-2.685-2.114-4.628-4.497-4.786z" style="stroke:#fff;stroke-opacity:0;stroke-width:1;stroke-dasharray:none;stroke-linecap:butt;stroke-dashoffset:0;stroke-linejoin:miter;stroke-miterlimit:4;fill:#37474f;fill-rule:nonzero;opacity:1" transform="translate(341.657 -193.459) scale(2.081)" vector-effect="non-scaling-stroke"/><path d="M104.829 342.074a4.753 4.753 0 0 0 2.311-.641l93.179-53.797a14.654 14.654 0 0 0 7.327-12.69v-191.8c.438.029-1.399-.121-2.7.631l-93.179 53.797a14.654 14.654 0 0 0-7.327 12.69v189.899c0 .702.146 1.353.402 1.936l-.013-.025z" style="stroke:#fff;stroke-opacity:0;stroke-width:1;stroke-dasharray:none;stroke-linecap:butt;stroke-dashoffset:0;stroke-linejoin:miter;stroke-miterlimit:4;fill:#03989e;fill-rule:nonzero;opacity:1" transform="translate(341.657 -193.46) scale(2.081)" vector-effect="non-scaling-stroke"/><path d="M104.829 342.074a4.753 4.753 0 0 0 2.311-.641l93.179-53.797a14.654 14.654 0 0 0 7.327-12.69v-191.8c.438.029-1.399-.121-2.7.631l-93.179 53.797a14.654 14.654 0 0 0-7.327 12.69v189.899c0 .702.146 1.353.402 1.936l-.013-.025z" style="stroke:#fff;stroke-opacity:0;stroke-width:1;stroke-dasharray:none;stroke-linecap:butt;stroke-dashoffset:0;stroke-linejoin:miter;stroke-miterlimit:4;fill:#fff;fill-rule:nonzero;opacity:.5" transform="translate(341.657 -193.46) scale(2.081)" vector-effect="non-scaling-stroke"/><path d="M143.824 109.463c0 1.07-.751 2.371-1.678 2.906-.927.535-1.678.101-1.678-.969s.751-2.371 1.678-2.906c.926-.535 1.678-.101 1.678.969zM150.066 105.859c0 1.07-.751 2.371-1.678 2.906-.927.535-1.678.101-1.678-.969s.751-2.371 1.678-2.906c.926-.535 1.678-.101 1.678.969z" style="stroke:#fff;stroke-opacity:0;stroke-width:1;stroke-dasharray:none;stroke-linecap:butt;stroke-dashoffset:0;stroke-linejoin:miter;stroke-miterlimit:4;fill:#263238;fill-rule:nonzero;opacity:1" transform="translate(341.66 -193.458) scale(2.081)" vector-effect="non-scaling-stroke"/><path d="m175.261 93.25-20.295 11.718c-.803.463-1.453-.029-1.453-1.099s.651-2.313 1.453-2.776l20.295-11.717c.803-.463 1.453.028 1.453 1.098s-.651 2.313-1.453 2.776z" style="stroke:#fff;stroke-opacity:0;stroke-width:1;stroke-dasharray:none;stroke-linecap:butt;stroke-dashoffset:0;stroke-linejoin:miter;stroke-miterlimit:4;fill:#263238;fill-rule:nonzero;opacity:1" transform="translate(341.66 -193.46) scale(2.081)" vector-effect="non-scaling-stroke"/><path d="M171.827 315.682c1.212 0 1.996 1.286 1.996 3.275 0 3.127-1.956 6.897-4.271 8.234l-9.707 5.605c-.518.299-1.005.451-1.446.451-1.212 0-1.996-1.285-1.996-3.275 0-3.127 1.956-6.897 4.271-8.234l9.707-5.604c.519-.3 1.005-.452 1.446-.452m0-.829c-.57 0-1.199.181-1.86.562l-9.707 5.604c-2.588 1.494-4.685 5.502-4.685 8.952 0 2.569 1.163 4.104 2.825 4.104.57 0 1.199-.181 1.86-.562l9.707-5.604c2.588-1.494 4.685-5.502 4.685-8.952 0-2.569-1.163-4.104-2.825-4.104z" style="stroke:#fff;stroke-opacity:0;stroke-width:1;stroke-dasharray:none;stroke-linecap:butt;stroke-dashoffset:0;stroke-linejoin:miter;stroke-miterlimit:4;fill:#263238;fill-rule:nonzero;opacity:1" transform="translate(341.663 -193.435) scale(2.081)" vector-effect="non-scaling-stroke"/><path d="M118.185 163.707v214.987c0 3.894 1.431 6.51 3.618 7.369l.061.02.01.01 9.291 5.09-.051-8.268-1.032-222.929-9.812-5.018c-1.298 2.781-2.085 5.867-2.085 8.739z" style="stroke:#fff;stroke-opacity:0;stroke-width:1;stroke-dasharray:none;stroke-linecap:butt;stroke-dashoffset:0;stroke-linejoin:miter;stroke-miterlimit:4;fill:#e6e6e6;fill-rule:nonzero;opacity:1" transform="translate(341.657 -193.451) scale(2.081)" vector-effect="non-scaling-stroke"/><path d="m131.67 392.031-10.056-5.51c-2.492-1.029-3.929-3.936-3.929-7.827V163.707c0-2.827.757-6.005 2.132-8.95l.22-.47 10.544 5.393.001.304 1.032 222.929.056 9.118zm-9.555-6.375 8.545 4.682-.046-7.419-1.031-222.625-9.073-4.641c-1.179 2.679-1.824 5.521-1.824 8.055v214.987c0 3.511 1.234 6.092 3.301 6.904l.128.06v-.003z" style="stroke:#fff;stroke-opacity:0;stroke-width:1;stroke-dasharray:none;stroke-linecap:butt;stroke-dashoffset:0;stroke-linejoin:miter;stroke-miterlimit:4;fill:#e6e6e6;fill-rule:nonzero;opacity:1" transform="translate(341.66 -193.452) scale(2.081)" vector-effect="non-scaling-stroke"/><path d="m120.27 154.968 9.812 5.018 105.007-61.089 7.011-4.078-9.689-5.458-.276-.163v-.01c-1.543-.93-3.567-.869-5.795.419l-99.396 57.389c-2.678 1.544-5.069 4.518-6.674 7.972z" style="stroke:#fff;stroke-opacity:0;stroke-width:1;stroke-dasharray:none;stroke-linecap:butt;stroke-dashoffset:0;stroke-linejoin:miter;stroke-miterlimit:4;fill:#e0e0e0;fill-rule:nonzero;opacity:1" transform="translate(341.658 -193.459) scale(2.081)" vector-effect="non-scaling-stroke"/><path d="M130.082 160.487a.49.49 0 0 1-.227-.055l-9.812-5.018a.5.5 0 0 1-.226-.656c1.705-3.671 4.212-6.658 6.877-8.195l99.397-57.389c2.3-1.329 4.539-1.478 6.303-.414a.492.492 0 0 1 .073.054l.199.119 9.68 5.452a.5.5 0 0 1 .006.868L130.333 160.42a.507.507 0 0 1-.251.067zm-9.15-5.742 9.135 4.673 111.027-64.591-9.213-5.199a.51.51 0 0 1-.075-.054c-1.428-.819-3.275-.654-5.215.466l-99.397 57.389c-2.387 1.376-4.652 4.027-6.262 7.316z" style="stroke:#fff;stroke-opacity:0;stroke-width:1;stroke-dasharray:none;stroke-linecap:butt;stroke-dashoffset:0;stroke-linejoin:miter;stroke-miterlimit:4;fill:#e0e0e0;fill-rule:nonzero;opacity:1" transform="translate(341.658 -193.458) scale(2.081)" vector-effect="non-scaling-stroke"/><path d="M127.813 169.114V383.13c0 3.373 1.073 5.795 2.79 6.93l.562.307c1.492.705 3.363.552 5.397-.623l48.047-27.739 51.349-30.907c4.834-2.79 8.759-9.026 8.759-15.465V101.627c0-3.26-1.002-5.621-2.617-6.807a3.844 3.844 0 0 0-.889-.501c-1.462-.624-3.281-.439-5.253.695l-99.396 58.357c-2.576 1.482-4.886 3.335-6.48 6.616-1.41 2.872-2.269 6.112-2.269 9.127z" style="stroke:#fff;stroke-opacity:0;stroke-width:1;stroke-dasharray:none;stroke-linecap:butt;stroke-dashoffset:0;stroke-linejoin:miter;stroke-miterlimit:4;fill:#fafafa;fill-rule:nonzero;opacity:1" transform="translate(341.659 -193.458) scale(2.081)" vector-effect="non-scaling-stroke"/><path d="M235.958 331.097c-20.453 12.201-73.661 43.957-100 59.821-3.449 2.077-7.838-.409-7.838-4.435V166.416c0-5.095 2.701-9.808 7.096-12.384l101.22-59.322c3.449-2.021 7.791.466 7.791 4.464v217.359a16.955 16.955 0 0 1-8.269 14.564z" style="stroke:#fff;stroke-opacity:0;stroke-width:1;stroke-dasharray:none;stroke-linecap:butt;stroke-dashoffset:0;stroke-linejoin:miter;stroke-miterlimit:4;fill:#fafafa;fill-rule:nonzero;opacity:1" transform="translate(341.66 -193.46) scale(2.081)" vector-effect="non-scaling-stroke"/><path d="M235.706 330.665a65051.536 65051.536 0 0 0-48.159 28.756 34022.832 34022.832 0 0 0-28.496 17.05 15428.875 15428.875 0 0 0-18.701 11.221c-1.75 1.052-3.615 2.55-5.548 3.222-3.209 1.115-6.098-1.452-6.183-4.62-.014-.511 0-1.024 0-1.535V182.993c0-5.374-.012-10.748 0-16.122.012-5.287 2.567-9.874 7.136-12.575 2.32-1.371 4.65-2.725 6.976-4.088l32.701-19.165 38.747-22.708c7.349-4.307 14.68-8.647 22.048-12.922 2.282-1.324 5.155-1.194 6.741 1.195.644.97.755 2.048.759 3.159.006 1.918 0 3.835 0 5.753v210.175c0 6.144-2.686 11.692-8.021 14.97-.547.336-.046 1.202.505.863 5.564-3.419 8.516-9.246 8.516-15.697V115.11c0-5.226.056-10.454 0-15.68-.051-4.755-4.841-7.285-8.878-4.956-2.437 1.405-4.854 2.845-7.281 4.267l-33.601 19.692-39.097 22.913c-6.913 4.052-13.849 8.068-20.741 12.155-4.787 2.839-7.493 7.772-7.509 13.308-.005 1.8 0 3.599 0 5.399v213.226c0 .344-.011.689 0 1.033.118 3.766 3.741 6.649 7.448 5.408 1.888-.632 3.67-2.05 5.37-3.072 1.933-1.163 3.867-2.324 5.801-3.486 4.323-2.595 8.648-5.188 12.973-7.78a42292.651 42292.651 0 0 1 56.764-33.936c6.744-4.026 13.489-8.051 20.234-12.075.553-.327.051-1.192-.504-.861z" style="stroke:#fff;stroke-opacity:0;stroke-width:1;stroke-dasharray:none;stroke-linecap:butt;stroke-dashoffset:0;stroke-linejoin:miter;stroke-miterlimit:4;fill:#ebebeb;fill-rule:nonzero;opacity:1" transform="translate(341.66 -193.46) scale(2.081)" vector-effect="non-scaling-stroke"/><path d="m135.216 154.032 101.22-59.322c3.449-2.021 7.79.466 7.79 4.464v9.548l-.03.002L128.12 175.74v-9.325c0-5.094 2.701-9.807 7.096-12.383z" style="stroke:#fff;stroke-opacity:0;stroke-width:1;stroke-dasharray:none;stroke-linecap:butt;stroke-dashoffset:0;stroke-linejoin:miter;stroke-miterlimit:4;fill:#ebebeb;fill-rule:nonzero;opacity:1" transform="translate(341.659 -193.458) scale(2.081)" vector-effect="non-scaling-stroke"/><ellipse rx="37.174" ry="21.462" style="stroke:#fff;stroke-opacity:0;stroke-width:1;stroke-dasharray:none;stroke-linecap:butt;stroke-dashoffset:0;stroke-linejoin:miter;stroke-miterlimit:4;fill:#03989e;fill-rule:nonzero;opacity:1" transform="rotate(-59.98 549.602 -524.537) scale(2.081)" vector-effect="non-scaling-stroke"/><ellipse rx="37.174" ry="21.462" style="stroke:#fff;stroke-opacity:0;stroke-width:1;stroke-dasharray:none;stroke-linecap:butt;stroke-dashoffset:0;stroke-linejoin:miter;stroke-miterlimit:4;fill:#fff;fill-rule:nonzero;opacity:.5" transform="rotate(-59.98 549.602 -524.537) scale(2.081)" vector-effect="non-scaling-stroke"/><path d="M181.458 195.443a1.18 1.18 0 0 1-1.18-1.18v-7.773c0-3.435 2.33-7.471 5.305-9.189 1.64-.947 3.243-1.064 4.514-.33 1.271.734 1.971 2.181 1.971 4.074v7.773a1.18 1.18 0 1 1-2.36 0v-7.773c0-1-.288-1.74-.791-2.031-.503-.29-1.288-.17-2.154.33-2.236 1.291-4.125 4.563-4.125 7.145v7.773a1.18 1.18 0 0 1-1.18 1.181z" style="stroke:#fff;stroke-opacity:0;stroke-width:1;stroke-dasharray:none;stroke-linecap:butt;stroke-dashoffset:0;stroke-linejoin:miter;stroke-miterlimit:4;fill:#37474f;fill-rule:nonzero;opacity:1" transform="translate(341.664 -193.45) scale(2.081)" vector-effect="non-scaling-stroke"/><path d="M195.701 183.807c-.458-.22-1.036-.178-1.666.186l-15.723 9.078c-.63.364-1.208.989-1.666 1.739-.619 1.013-1.017 2.253-1.017 3.389v13.612c0 .986.299 1.705.783 2.073.085.065.178.115.275.158.452.199 1.014.151 1.626-.202l15.723-9.077c1.482-.856 2.684-3.152 2.684-5.128v-13.612c-.001-1.138-.4-1.919-1.019-2.216z" style="stroke:#fff;stroke-opacity:0;stroke-width:1;stroke-dasharray:none;stroke-linecap:butt;stroke-dashoffset:0;stroke-linejoin:miter;stroke-miterlimit:4;fill:#03989e;fill-rule:nonzero;opacity:1" transform="translate(341.665 -193.45) scale(2.081)" vector-effect="non-scaling-stroke"/><path d="m187.961 197.991 1.515 4.358-5.327 3.075 1.334-5.382.188-.762c-.9.026-1.522-.67-1.522-1.895 0-.469.089-.963.249-1.451.427-1.292 1.349-2.546 2.415-3.161 1.471-.849 2.664-.163 2.664 1.538 0 1.225-.625 2.641-1.525 3.656l.009.024z" style="stroke:#fff;stroke-opacity:0;stroke-width:1;stroke-dasharray:none;stroke-linecap:butt;stroke-dashoffset:0;stroke-linejoin:miter;stroke-miterlimit:4;fill:#455a64;fill-rule:nonzero;opacity:1" transform="translate(341.664 -193.447) scale(2.081)" vector-effect="non-scaling-stroke"/><path d="m185.482 200.042.188-.762c-.9.026-1.522-.67-1.522-1.895 0-.469.089-.963.249-1.451l3.563 2.058 1.515 4.358-3.993-2.308z" style="stroke:#fff;stroke-opacity:0;stroke-width:1;stroke-dasharray:none;stroke-linecap:butt;stroke-dashoffset:0;stroke-linejoin:miter;stroke-miterlimit:4;fill:#37474f;fill-rule:nonzero;opacity:1" transform="translate(341.665 -193.448) scale(2.081)" vector-effect="non-scaling-stroke"/><path d="M224.947 245.656 147.4 290.429c-3.208 1.852-5.809-.114-5.809-4.391V274.29c0-4.277 2.601-9.246 5.809-11.098l77.548-44.772c3.208-1.852 5.809.114 5.809 4.391v11.748c-.001 4.276-2.602 9.245-5.81 11.097z" style="stroke:#fff;stroke-opacity:0;stroke-width:1;stroke-dasharray:none;stroke-linecap:butt;stroke-dashoffset:0;stroke-linejoin:miter;stroke-miterlimit:4;fill:#03989e;fill-rule:nonzero;opacity:1" transform="translate(341.66 -193.444) scale(2.081)" vector-effect="non-scaling-stroke"/><rect width="1.5" height="12.434" x="-.75" y="-6.217" rx="0" ry="0" style="stroke:#fff;stroke-opacity:0;stroke-width:1;stroke-dasharray:none;stroke-linecap:butt;stroke-dashoffset:0;stroke-linejoin:miter;stroke-miterlimit:4;fill:#fafafa;fill-rule:nonzero;opacity:1" transform="translate(675.881 364.996) scale(2.081)" vector-effect="non-scaling-stroke"/><rect width="12.435" height="1.5" x="-6.218" y="-.75" rx="0" ry="0" style="stroke:#fff;stroke-opacity:0;stroke-width:1;stroke-dasharray:none;stroke-linecap:butt;stroke-dashoffset:0;stroke-linejoin:miter;stroke-miterlimit:4;fill:#fafafa;fill-rule:nonzero;opacity:1" transform="rotate(-30.01 1019.136 -1077.62) scale(2.081)" vector-effect="non-scaling-stroke"/><rect width="1.5" height="8.793" x="-.75" y="-4.396" rx="0" ry="0" style="stroke:#fff;stroke-opacity:0;stroke-width:1;stroke-dasharray:none;stroke-linecap:butt;stroke-dashoffset:0;stroke-linejoin:miter;stroke-miterlimit:4;fill:#fafafa;fill-rule:nonzero;opacity:1" transform="rotate(-59.98 654.65 -402.456) scale(2.081)" vector-effect="non-scaling-stroke"/><rect width="15.229" height="1.5" x="-7.614" y="-.75" rx="0" ry="0" style="stroke:#fff;stroke-opacity:0;stroke-width:1;stroke-dasharray:none;stroke-linecap:butt;stroke-dashoffset:0;stroke-linejoin:miter;stroke-miterlimit:4;fill:#fafafa;fill-rule:nonzero;opacity:1" transform="rotate(-59.98 654.666 -402.485) scale(2.081)" vector-effect="non-scaling-stroke"/><rect width="1.5" height="12.435" x="-.75" y="-6.218" rx="0" ry="0" style="stroke:#fff;stroke-opacity:0;stroke-width:1;stroke-dasharray:none;stroke-linecap:butt;stroke-dashoffset:0;stroke-linejoin:miter;stroke-miterlimit:4;fill:#fafafa;fill-rule:nonzero;opacity:1" transform="translate(729.093 336.013) scale(2.081)" vector-effect="non-scaling-stroke"/><rect width="12.434" height="1.5" x="-6.217" y="-.75" rx="0" ry="0" style="stroke:#fff;stroke-opacity:0;stroke-width:1;stroke-dasharray:none;stroke-linecap:butt;stroke-dashoffset:0;stroke-linejoin:miter;stroke-miterlimit:4;fill:#fafafa;fill-rule:nonzero;opacity:1" transform="rotate(-30.01 991.68 -1191.348) scale(2.081)" vector-effect="non-scaling-stroke"/><rect width="1.5" height="8.792" x="-.75" y="-4.396" rx="0" ry="0" style="stroke:#fff;stroke-opacity:0;stroke-width:1;stroke-dasharray:none;stroke-linecap:butt;stroke-dashoffset:0;stroke-linejoin:miter;stroke-miterlimit:4;fill:#fafafa;fill-rule:nonzero;opacity:1" transform="rotate(-59.98 656.152 -463.043) scale(2.081)" vector-effect="non-scaling-stroke"/><rect width="15.229" height="1.5" x="-7.614" y="-.75" rx="0" ry="0" style="stroke:#fff;stroke-opacity:0;stroke-width:1;stroke-dasharray:none;stroke-linecap:butt;stroke-dashoffset:0;stroke-linejoin:miter;stroke-miterlimit:4;fill:#fafafa;fill-rule:nonzero;opacity:1" transform="rotate(-59.98 656.162 -463.074) scale(2.081)" vector-effect="non-scaling-stroke"/><rect width="1.5" height="12.434" x="-.75" y="-6.217" rx="0" ry="0" style="stroke:#fff;stroke-opacity:0;stroke-width:1;stroke-dasharray:none;stroke-linecap:butt;stroke-dashoffset:0;stroke-linejoin:miter;stroke-miterlimit:4;fill:#fafafa;fill-rule:nonzero;opacity:1" transform="translate(782.303 307.031) scale(2.081)" vector-effect="non-scaling-stroke"/><rect width="12.435" height="1.5" x="-6.218" y="-.75" rx="0" ry="0" style="stroke:#fff;stroke-opacity:0;stroke-width:1;stroke-dasharray:none;stroke-linecap:butt;stroke-dashoffset:0;stroke-linejoin:miter;stroke-miterlimit:4;fill:#fafafa;fill-rule:nonzero;opacity:1" transform="rotate(-30.01 964.238 -1304.992) scale(2.081)" vector-effect="non-scaling-stroke"/><rect width="1.5" height="8.792" x="-.75" y="-4.396" rx="0" ry="0" style="stroke:#fff;stroke-opacity:0;stroke-width:1;stroke-dasharray:none;stroke-linecap:butt;stroke-dashoffset:0;stroke-linejoin:miter;stroke-miterlimit:4;fill:#fafafa;fill-rule:nonzero;opacity:1" transform="rotate(-59.98 657.65 -523.632) scale(2.081)" vector-effect="non-scaling-stroke"/><rect width="15.229" height="1.5" x="-7.614" y="-.75" rx="0" ry="0" style="stroke:#fff;stroke-opacity:0;stroke-width:1;stroke-dasharray:none;stroke-linecap:butt;stroke-dashoffset:0;stroke-linejoin:miter;stroke-miterlimit:4;fill:#fafafa;fill-rule:nonzero;opacity:1" transform="rotate(-59.98 657.614 -523.643) scale(2.081)" vector-effect="non-scaling-stroke"/><path d="M227.254 261.843c1.038 0 1.502 1.551 1.502 3.088v11.748c0 3.572-2.202 7.862-4.809 9.366L146.4 330.817c-.486.281-.938.429-1.306.429-1.038 0-1.502-1.551-1.502-3.088V316.41c0-3.572 2.202-7.862 4.809-9.366l77.548-44.772c.484-.281.936-.429 1.305-.429m-.001-2c-.707 0-1.487.224-2.306.697L147.4 305.312c-3.208 1.852-5.809 6.821-5.809 11.098v11.748c0 3.185 1.441 5.088 3.502 5.088.707 0 1.487-.224 2.306-.697l77.548-44.772c3.208-1.852 5.809-6.821 5.809-11.098v-11.748c0-3.185-1.442-5.088-3.503-5.088z" style="stroke:#fff;stroke-opacity:0;stroke-width:1;stroke-dasharray:none;stroke-linecap:butt;stroke-dashoffset:0;stroke-linejoin:miter;stroke-miterlimit:4;fill:#03989e;fill-rule:nonzero;opacity:1" transform="translate(341.66 -193.442) scale(2.081)" vector-effect="non-scaling-stroke"/><g><text xml:space="preserve" font-family="'Montserrat-ExtraBold'" font-size="11.609" style="stroke:#fff;stroke-opacity:0;stroke-width:1;stroke-dasharray:none;stroke-linecap:butt;stroke-dashoffset:0;stroke-linejoin:miter;stroke-miterlimit:4;fill:#03989e;fill-rule:nonzero;opacity:1;white-space:pre" transform="matrix(1.802 -1.041 0 2.081 717.037 430.569)"><tspan x="-15.6" y="3.647">e</tspan><tspan x="-8.448" y="3.647">n</tspan><tspan x="-.643" y="3.647">t</tspan><tspan x="4.582" y="3.647">e</tspan><tspan x="11.734" y="3.647">r</tspan></text></g><path d="M371.135 251.925a.495.495 0 0 1-.246-.065l-3.303-1.872a5.174 5.174 0 0 1-2.637-4.486v-3.109a.5.5 0 0 1 1 0v3.109c0 1.486.815 2.872 2.129 3.616l3.303 1.872a.5.5 0 0 1-.246.935z" style="stroke:#fff;stroke-opacity:0;stroke-width:1;stroke-dasharray:none;stroke-linecap:butt;stroke-dashoffset:0;stroke-linejoin:miter;stroke-miterlimit:4;fill:#fff;fill-rule:nonzero;opacity:1" transform="translate(341.683 -193.443) scale(2.081)" vector-effect="non-scaling-stroke"/><path d="M400.997 268.631c-.33 0-.661-.085-.963-.257l-3.535-2.003a.5.5 0 0 1 .492-.871l3.535 2.003a.946.946 0 0 0 .951-.006.882.882 0 0 0 .453-.777v-3.373a.5.5 0 0 1 1 0v3.373c0 .681-.354 1.295-.949 1.641a1.94 1.94 0 0 1-.984.27z" style="stroke:#fff;stroke-opacity:0;stroke-width:1;stroke-dasharray:none;stroke-linecap:butt;stroke-dashoffset:0;stroke-linejoin:miter;stroke-miterlimit:4;fill:#fff;fill-rule:nonzero;opacity:1" transform="translate(341.686 -193.44) scale(2.081)" vector-effect="non-scaling-stroke"/><path d="M308.378 253.204s7.289-.491 11.424 9.64c2.57 6.298 5.7 16.03 7.7 22.494a10.438 10.438 0 0 1-3.26 11.085l-12.71 10.664-4.548-8.27s4.903-6.542 8.683-9.924l-8.683-26.05 1.394-9.639z" style="stroke:#fff;stroke-opacity:0;stroke-width:1;stroke-dasharray:none;stroke-linecap:butt;stroke-dashoffset:0;stroke-linejoin:miter;stroke-miterlimit:4;fill:#ffa8a7;fill-rule:nonzero;opacity:1" transform="translate(341.677 -193.442) scale(2.081)" vector-effect="non-scaling-stroke"/><path d="M311.739 284.138s11.578 1.531 14.472-7.401c0 0-4.962-13.067-7.236-17.408-2.274-4.342-6.928-7.495-10.597-6.125-3.669 1.37 3.361 30.934 3.361 30.934z" style="stroke:#fff;stroke-opacity:0;stroke-width:1;stroke-dasharray:none;stroke-linecap:butt;stroke-dashoffset:0;stroke-linejoin:miter;stroke-miterlimit:4;fill:#03989e;fill-rule:nonzero;opacity:1" transform="translate(341.678 -193.442) scale(2.081)" vector-effect="non-scaling-stroke"/><path d="M311.739 284.138s11.578 1.531 14.472-7.401c0 0-4.962-13.067-7.236-17.408-2.274-4.342-6.928-7.495-10.597-6.125-3.669 1.37 3.361 30.934 3.361 30.934z" style="stroke:#fff;stroke-opacity:0;stroke-width:1;stroke-dasharray:none;stroke-linecap:butt;stroke-dashoffset:0;stroke-linejoin:miter;stroke-miterlimit:4;fill:#fff;fill-rule:nonzero;opacity:.4" transform="translate(341.678 -193.442) scale(2.081)" vector-effect="non-scaling-stroke"/><path d="M304.013 401.4s-5.505-4.714-7.641-4.935c-2.136-.221-5.84 3.441-2.712 9.796.87 1.768 4.406 3.683 6.616 7.071s4.198 5.935 7.587 5.472c3.388-.463 3.83-2.378 3.609-4.588-.221-2.21-1.215-6.003-1.215-6.003l-6.244-6.813z" style="stroke:#fff;stroke-opacity:0;stroke-width:1;stroke-dasharray:none;stroke-linecap:butt;stroke-dashoffset:0;stroke-linejoin:miter;stroke-miterlimit:4;fill:#37474f;fill-rule:nonzero;opacity:1" transform="translate(341.676 -193.426) scale(2.081)" vector-effect="non-scaling-stroke"/><path d="M308.043 417.789c-3.492.477-5.542-2.148-7.82-5.64-2.278-3.492-5.922-5.466-6.819-7.289a13.046 13.046 0 0 1-.88-2.276c.127 1.098.47 2.322 1.136 3.676.87 1.768 4.406 3.683 6.616 7.071s4.198 5.935 7.587 5.472c2.595-.355 3.456-1.564 3.62-3.102-.449 1.037-1.434 1.814-3.44 2.088z" style="stroke:#fff;stroke-opacity:0;stroke-width:1;stroke-dasharray:none;stroke-linecap:butt;stroke-dashoffset:0;stroke-linejoin:miter;stroke-miterlimit:4;fill:#263238;fill-rule:nonzero;opacity:1" transform="translate(341.675 -193.426) scale(2.081)" vector-effect="non-scaling-stroke"/><path d="M301.077 407.457a.534.534 0 0 1-.471-.785c.071-.134 1.789-3.289 5.176-4.057a.534.534 0 1 1 .237 1.042c-2.901.659-4.454 3.49-4.47 3.519a.536.536 0 0 1-.472.281z" style="stroke:#fff;stroke-opacity:0;stroke-width:1;stroke-dasharray:none;stroke-linecap:butt;stroke-dashoffset:0;stroke-linejoin:miter;stroke-miterlimit:4;fill:#ebebeb;fill-rule:nonzero;opacity:1" transform="translate(341.678 -193.425) scale(2.081)" vector-effect="non-scaling-stroke"/><path d="M299.022 405.563a.534.534 0 0 1-.471-.785c.071-.134 1.788-3.289 5.176-4.057a.534.534 0 1 1 .237 1.042c-2.902.659-4.454 3.49-4.47 3.519a.538.538 0 0 1-.472.281z" style="stroke:#fff;stroke-opacity:0;stroke-width:1;stroke-dasharray:none;stroke-linecap:butt;stroke-dashoffset:0;stroke-linejoin:miter;stroke-miterlimit:4;fill:#ebebeb;fill-rule:nonzero;opacity:1" transform="translate(341.678 -193.426) scale(2.081)" vector-effect="non-scaling-stroke"/><path d="M296.673 403.669a.534.534 0 0 1-.471-.785c.071-.134 1.788-3.288 5.175-4.057a.532.532 0 0 1 .64.403.533.533 0 0 1-.403.639c-2.901.659-4.453 3.49-4.469 3.518a.536.536 0 0 1-.472.282z" style="stroke:#fff;stroke-opacity:0;stroke-width:1;stroke-dasharray:none;stroke-linecap:butt;stroke-dashoffset:0;stroke-linejoin:miter;stroke-miterlimit:4;fill:#ebebeb;fill-rule:nonzero;opacity:1" transform="translate(341.677 -193.427) scale(2.081)" vector-effect="non-scaling-stroke"/><path d="M274.732 416.851s-7.374-2.392-9.574-1.732c-2.2.66-4.352 5.799 1.349 10.788 1.586 1.388 5.865 1.826 9.439 4.263 3.575 2.438 6.585 4.135 9.741 2.285 3.156-1.85 2.898-3.978 2.336-6.286-.715-2.94-1.29-5.076-1.29-5.076l-12.001-4.242z" style="stroke:#fff;stroke-opacity:0;stroke-width:1;stroke-dasharray:none;stroke-linecap:butt;stroke-dashoffset:0;stroke-linejoin:miter;stroke-miterlimit:4;fill:#37474f;fill-rule:nonzero;opacity:1" transform="translate(341.674 -193.425) scale(2.081)" vector-effect="non-scaling-stroke"/><path d="M285.449 431.379c-3.252 1.907-6.356.158-10.04-2.355-3.685-2.513-8.095-2.964-9.73-4.394a14.012 14.012 0 0 1-1.804-1.885c.577 1.032 1.418 2.1 2.633 3.163 1.586 1.388 5.865 1.826 9.439 4.263 3.575 2.438 6.585 4.135 9.741 2.285 2.417-1.417 2.77-2.965 2.3-4.552-.017 1.206-.67 2.379-2.539 3.475z" style="stroke:#fff;stroke-opacity:0;stroke-width:1;stroke-dasharray:none;stroke-linecap:butt;stroke-dashoffset:0;stroke-linejoin:miter;stroke-miterlimit:4;fill:#263238;fill-rule:nonzero;opacity:1" transform="translate(341.673 -193.423) scale(2.081)" vector-effect="non-scaling-stroke"/><path d="M272.973 423.658a.534.534 0 0 1-.533-.585c.016-.161.412-3.965 3.428-6.106a.534.534 0 0 1 .619.871c-2.61 1.854-2.979 5.303-2.982 5.338a.536.536 0 0 1-.532.482z" style="stroke:#fff;stroke-opacity:0;stroke-width:1;stroke-dasharray:none;stroke-linecap:butt;stroke-dashoffset:0;stroke-linejoin:miter;stroke-miterlimit:4;fill:#ebebeb;fill-rule:nonzero;opacity:1" transform="translate(341.673 -193.424) scale(2.081)" vector-effect="non-scaling-stroke"/><path d="M276.018 424.655a.532.532 0 0 1-.533-.585c.016-.161.413-3.965 3.428-6.106a.534.534 0 1 1 .619.871c-2.609 1.854-2.98 5.303-2.983 5.338a.535.535 0 0 1-.531.482z" style="stroke:#fff;stroke-opacity:0;stroke-width:1;stroke-dasharray:none;stroke-linecap:butt;stroke-dashoffset:0;stroke-linejoin:miter;stroke-miterlimit:4;fill:#ebebeb;fill-rule:nonzero;opacity:1" transform="translate(341.674 -193.424) scale(2.081)" vector-effect="non-scaling-stroke"/><path d="M270.164 422.633a.534.534 0 0 1-.533-.585c.016-.161.412-3.965 3.428-6.106a.534.534 0 1 1 .619.871c-2.61 1.854-2.979 5.303-2.982 5.338a.536.536 0 0 1-.532.482z" style="stroke:#fff;stroke-opacity:0;stroke-width:1;stroke-dasharray:none;stroke-linecap:butt;stroke-dashoffset:0;stroke-linejoin:miter;stroke-miterlimit:4;fill:#ebebeb;fill-rule:nonzero;opacity:1" transform="translate(341.673 -193.424) scale(2.081)" vector-effect="non-scaling-stroke"/><path d="M310.601 402.805c.66-7.302 2.091-18.742 2.686-24.091 1.063-9.556.089-16.845-.576-20.311a16.625 16.625 0 0 1-.23-4.8c1.446-14.542 2.395-38.109 1.593-43.289l-20.413 4.319s2.499 33.066 3.595 44.065c1.103 11.072 5.207 44.202 5.207 44.202 1.706 1.005 4.805 2.104 8.138-.095z" style="stroke:#fff;stroke-opacity:0;stroke-width:1;stroke-dasharray:none;stroke-linecap:butt;stroke-dashoffset:0;stroke-linejoin:miter;stroke-miterlimit:4;fill:#455a64;fill-rule:nonzero;opacity:1" transform="translate(341.677 -193.435) scale(2.081)" vector-effect="non-scaling-stroke"/><path d="M307.659 410.312c1.768-.276 2.596-2.099 2.596-2.099 0-1.151.134-3.072.345-5.408-3.333 2.199-6.431 1.1-8.139.095l.723 6.142c.83.939 2.708 1.547 4.475 1.27z" style="stroke:#fff;stroke-opacity:0;stroke-width:1;stroke-dasharray:none;stroke-linecap:butt;stroke-dashoffset:0;stroke-linejoin:miter;stroke-miterlimit:4;fill:#ffa8a7;fill-rule:nonzero;opacity:1" transform="translate(341.676 -193.426) scale(2.081)" vector-effect="non-scaling-stroke"/><path d="M287.637 415.635c.833-11.05 2.441-32.468 2.656-35.831.216-3.394-.16-8.067-.704-11.114-.354-1.983-.325-4.012.033-5.994l8.971-49.774-24.667-.361-1.614 52.145c-.021.674.005 1.349.077 2.019l5.232 48.6c-.001 0 5.101 4.279 10.016.31z" style="stroke:#fff;stroke-opacity:0;stroke-width:1;stroke-dasharray:none;stroke-linecap:butt;stroke-dashoffset:0;stroke-linejoin:miter;stroke-miterlimit:4;fill:#455a64;fill-rule:nonzero;opacity:1" transform="translate(341.674 -193.436) scale(2.081)" vector-effect="non-scaling-stroke"/><path d="M283.524 424.761c1.774-.166 3.368-1.664 3.616-2.541l.497-6.585c-4.914 3.969-10.017-.31-10.017-.31l.785 7.288c-.001 0 1.159 2.519 5.119 2.148z" style="stroke:#fff;stroke-opacity:0;stroke-width:1;stroke-dasharray:none;stroke-linecap:butt;stroke-dashoffset:0;stroke-linejoin:miter;stroke-miterlimit:4;fill:#ffa8a7;fill-rule:nonzero;opacity:1" transform="translate(341.674 -193.425) scale(2.081)" vector-effect="non-scaling-stroke"/><path d="m285.323 256.518-5.819 1.989-6.261 29.61.303 26.256s4.471 3.563 21.934 3.563c9.803 0 16.184-3.692 18.592-7.622l-1.57-15.862s1.57-15.63 1.57-23.357c0-7.726.345-14.061-5.695-17.891l-5.377.442-17.677 2.872z" style="stroke:#fff;stroke-opacity:0;stroke-width:1;stroke-dasharray:none;stroke-linecap:butt;stroke-dashoffset:0;stroke-linejoin:miter;stroke-miterlimit:4;fill:#03989e;fill-rule:nonzero;opacity:1" transform="translate(341.676 -193.441) scale(2.081)" vector-effect="non-scaling-stroke"/><path d="m285.323 256.518-5.819 1.989-6.261 29.61.303 26.256s4.471 3.563 21.934 3.563c9.803 0 16.184-3.692 18.592-7.622l-1.57-15.862s1.57-15.63 1.57-23.357c0-7.726.345-14.061-5.695-17.891l-5.377.442-17.677 2.872z" style="stroke:#fff;stroke-opacity:0;stroke-width:1;stroke-dasharray:none;stroke-linecap:butt;stroke-dashoffset:0;stroke-linejoin:miter;stroke-miterlimit:4;fill:#fff;fill-rule:nonzero;opacity:.2" transform="translate(341.676 -193.441) scale(2.081)" vector-effect="non-scaling-stroke"/><path d="m279.004 231.073-2.914 5.767a.653.653 0 0 0 .377.915l3.458 1.152-.921-7.834z" style="stroke:#fff;stroke-opacity:0;stroke-width:1;stroke-dasharray:none;stroke-linecap:butt;stroke-dashoffset:0;stroke-linejoin:miter;stroke-miterlimit:4;fill:#f28f8f;fill-rule:nonzero;opacity:1" transform="translate(341.675 -193.443) scale(2.081)" vector-effect="non-scaling-stroke"/><path d="M283.04 221.399s-4.419 2.381-4.419 16.043c0 7.513.516 12.3 4.419 12.006 3.904-.295 15.136-1.768 15.136-1.768v-26.281H283.04z" style="stroke:#fff;stroke-opacity:0;stroke-width:1;stroke-dasharray:none;stroke-linecap:butt;stroke-dashoffset:0;stroke-linejoin:miter;stroke-miterlimit:4;fill:#ffa8a7;fill-rule:nonzero;opacity:1" transform="translate(341.674 -193.445) scale(2.081)" vector-effect="non-scaling-stroke"/><path d="M283.04 249.447c1.372-.103 3.651-.353 6.027-.633v-1.393c-2.186 1.121-6.086 1.907-6.679 2.022.207.018.422.022.652.004z" style="stroke:#fff;stroke-opacity:0;stroke-width:1;stroke-dasharray:none;stroke-linecap:butt;stroke-dashoffset:0;stroke-linejoin:miter;stroke-miterlimit:4;fill:#f28f8f;fill-rule:nonzero;opacity:1" transform="translate(341.674 -193.442) scale(2.081)" vector-effect="non-scaling-stroke"/><path d="M-5.865-2.55v8.574h11.73V-6.024z" style="stroke:#fff;stroke-opacity:0;stroke-width:1;stroke-dasharray:none;stroke-linecap:butt;stroke-dashoffset:0;stroke-linejoin:miter;stroke-miterlimit:4;fill:#ffa8a7;fill-rule:nonzero;opacity:1" transform="translate(954.037 325.537) scale(2.081)" vector-effect="non-scaling-stroke"/><path d="M288.398 252.148s4.217 1.498 7.605.909c3.388-.589 4.125-2.652 4.125-2.652s1.105-.084 2.873 3.241c0 0-2.071 4.138-6.85 4.419-6.261.368-10.828-1.547-10.828-1.547s1.63-4.796 3.075-4.37z" style="stroke:#fff;stroke-opacity:0;stroke-width:1;stroke-dasharray:none;stroke-linecap:butt;stroke-dashoffset:0;stroke-linejoin:miter;stroke-miterlimit:4;fill:#03989e;fill-rule:nonzero;opacity:1" transform="translate(341.675 -193.44) scale(2.081)" vector-effect="non-scaling-stroke"/><path d="M288.398 252.148s4.217 1.498 7.605.909c3.388-.589 4.125-2.652 4.125-2.652s1.105-.084 2.873 3.241c0 0-2.071 4.138-6.85 4.419-6.261.368-10.828-1.547-10.828-1.547s1.63-4.796 3.075-4.37z" style="stroke:#fff;stroke-opacity:0;stroke-width:1;stroke-dasharray:none;stroke-linecap:butt;stroke-dashoffset:0;stroke-linejoin:miter;stroke-miterlimit:4;fill:#fff;fill-rule:nonzero;opacity:.4" transform="translate(341.675 -193.44) scale(2.081)" vector-effect="non-scaling-stroke"/><path d="m262.232 277.586-3.15 4.847s-7.65-3.411-13.025-5.479c-5.375-2.067-8.58-4.939-8.58-4.939s.414-4.104 1.034-6.198c.62-2.094.827-3.852-1.034-2.921-1.861.93-3.101 4.548-3.204 4.962 0 0-10.751-10.802-12.095-10.57-1.344.233-1.033 1.86 1.861 5.194l2.893 3.335s-6.594 3.798-5.519 7.933c1.075 4.135 9.758 5.996 9.758 5.996s25.424 19.537 31.061 16.023c5.636-3.515 13.596-13.645 13.596-13.645l-13.596-4.538z" style="stroke:#fff;stroke-opacity:0;stroke-width:1;stroke-dasharray:none;stroke-linecap:butt;stroke-dashoffset:0;stroke-linejoin:miter;stroke-miterlimit:4;fill:#ffa8a7;fill-rule:nonzero;opacity:1" transform="translate(341.67 -193.44) scale(2.081)" vector-effect="non-scaling-stroke"/><path d="M281.812 257.753s4.693 3.859 1.635 11.837c-3.059 7.978-10.865 17.617-10.865 17.617s-8.186-2.544-11.343-9.156l10.319-16.147a8.689 8.689 0 0 1 6.756-3.998 89.798 89.798 0 0 1 3.498-.153z" style="stroke:#fff;stroke-opacity:0;stroke-width:1;stroke-dasharray:none;stroke-linecap:butt;stroke-dashoffset:0;stroke-linejoin:miter;stroke-miterlimit:4;fill:#03989e;fill-rule:nonzero;opacity:1" transform="translate(341.674 -193.44) scale(2.081)" vector-effect="non-scaling-stroke"/><path d="M281.812 257.753s4.693 3.859 1.635 11.837c-3.059 7.978-10.865 17.617-10.865 17.617s-8.186-2.544-11.343-9.156l10.319-16.147a8.689 8.689 0 0 1 6.756-3.998 89.798 89.798 0 0 1 3.498-.153z" style="stroke:#fff;stroke-opacity:0;stroke-width:1;stroke-dasharray:none;stroke-linecap:butt;stroke-dashoffset:0;stroke-linejoin:miter;stroke-miterlimit:4;fill:#fff;fill-rule:nonzero;opacity:.4" transform="translate(341.674 -193.44) scale(2.081)" vector-effect="non-scaling-stroke"/><path d="M281.346 213.356s-4.636-.616-5.819 2.578c-.737 1.989 1.621 3.536 1.621 3.536s-2.991 2.815 1.473 3.683c0 0-.368 3.83 3.609 3.314 0 0-.516 3.037 3.388 4.097 0 0-1.973 5.258 1.739 5.331h3.475l-1.401 4.051s2.595 6.261 10.698 6.261c0 0 2.063-4.272 3.02-5.524.958-1.252 5.966-7.66 5.966-12.742 0-5.082-1.955-8.093-4.66-8.761 0 0-1.158-2.803-3.884-4.645-2.725-1.841-8.47-3.484-11.711-1.226 0 0-2.873-3.767-4.861-3.767-1.99-.001-2.653 2.046-2.653 3.814z" style="stroke:#fff;stroke-opacity:0;stroke-width:1;stroke-dasharray:none;stroke-linecap:butt;stroke-dashoffset:0;stroke-linejoin:miter;stroke-miterlimit:4;fill:#263238;fill-rule:nonzero;opacity:1" transform="translate(341.674 -193.446) scale(2.081)" vector-effect="non-scaling-stroke"/><path d="M287.357 235.895s-.339-5.331 4.154-5.331 3.427 9.382-2.08 9.382l-2.074-4.051z" style="stroke:#fff;stroke-opacity:0;stroke-width:1;stroke-dasharray:none;stroke-linecap:butt;stroke-dashoffset:0;stroke-linejoin:miter;stroke-miterlimit:4;fill:#ffa8a7;fill-rule:nonzero;opacity:1" transform="translate(341.676 -193.445) scale(2.081)" vector-effect="non-scaling-stroke"/></g></svg>