<?xml version="1.0" encoding="utf-8"?>
<!-- Generator: Adobe Illustrator 24.0.1, SVG Export Plug-In . SVG Version: 6.00 Build 0)  -->
<svg version="1.1" id="Thank_u" xmlns="http://www.w3.org/2000/svg" xmlns:xlink="http://www.w3.org/1999/xlink" x="0px" y="0px"
	 viewBox="0 0 3328 2000" style="enable-background:new 0 0 3328 2000;" xml:space="preserve">
<style type="text/css">
	.st0{fill:url(#SVGID_1_);}
	.st1{fill:url(#SVGID_2_);}
	.st2{fill:url(#SVGID_3_);}
	.st3{fill:url(#SVGID_4_);}
	.st4{fill:url(#SVGID_5_);}
	.st5{fill:url(#SVGID_6_);}
	.st6{fill:url(#SVGID_7_);}
	.st7{fill:#FFFFFF;}
</style>
<radialGradient id="SVGID_1_" cx="869.886" cy="1854.0306" r="1996.7411" gradientTransform="matrix(1.1775 0 0 0.8335 -250.7638 -1193.2065)" gradientUnits="userSpaceOnUse">
	<stop  offset="0" style="stop-color:#027FFB"/>
	<stop  offset="7.469338e-02" style="stop-color:#0267CC"/>
	<stop  offset="0.1628" style="stop-color:#014F9D"/>
	<stop  offset="0.2564" style="stop-color:#013A73"/>
	<stop  offset="0.3536" style="stop-color:#01284F"/>
	<stop  offset="0.4556" style="stop-color:#001A32"/>
	<stop  offset="0.5639" style="stop-color:#000E1C"/>
	<stop  offset="0.6815" style="stop-color:#00060C"/>
	<stop  offset="0.8151" style="stop-color:#000103"/>
	<stop  offset="1" style="stop-color:#000000"/>
</radialGradient>
<rect x="0" y="0" class="st0" width="3328" height="2000"/>
<linearGradient id="SVGID_2_" gradientUnits="userSpaceOnUse" x1="466.5131" y1="-399.2459" x2="2861.4868" y2="2399.2461">
	<stop  offset="0" style="stop-color:#027FFB"/>
	<stop  offset="2.064723e-02" style="stop-color:#037BF8"/>
	<stop  offset="0.2236" style="stop-color:#0F55DC"/>
	<stop  offset="0.4256" style="stop-color:#1837C5"/>
	<stop  offset="0.6241" style="stop-color:#1E22B6"/>
	<stop  offset="0.8176" style="stop-color:#2215AC"/>
	<stop  offset="1" style="stop-color:#2311A9"/>
</linearGradient>
<rect x="0" y="0" class="st1" width="3328" height="2000"/>
<g id="Layer_3">
	<linearGradient id="SVGID_3_" gradientUnits="userSpaceOnUse" x1="1421.5193" y1="1090.01" x2="3456.9153" y2="731.1148">
		<stop  offset="0" style="stop-color:#027FFB"/>
		<stop  offset="2.595490e-02" style="stop-color:#0576F4"/>
		<stop  offset="0.1296" style="stop-color:#0E57DD"/>
		<stop  offset="0.2431" style="stop-color:#163DCA"/>
		<stop  offset="0.3685" style="stop-color:#1C2ABB"/>
		<stop  offset="0.5118" style="stop-color:#201CB1"/>
		<stop  offset="0.6888" style="stop-color:#2213AB"/>
		<stop  offset="1" style="stop-color:#2311A9"/>
	</linearGradient>
	<path class="st2" d="M3328,0v1715.1c-288.3,314.4-358.3-822.6-1359.1-728c-1146.5,108.4-349.7-703-39.6-987.1H3328z"/>
	<linearGradient id="SVGID_4_" gradientUnits="userSpaceOnUse" x1="1670.0261" y1="947.929" x2="3440.1113" y2="635.8151">
		<stop  offset="0" style="stop-color:#027FFB"/>
		<stop  offset="0.1086" style="stop-color:#0A64E7"/>
		<stop  offset="0.2567" style="stop-color:#1346D0"/>
		<stop  offset="0.4134" style="stop-color:#1A2FBF"/>
		<stop  offset="0.5804" style="stop-color:#1F1EB3"/>
		<stop  offset="0.7646" style="stop-color:#2214AB"/>
		<stop  offset="1" style="stop-color:#2311A9"/>
	</linearGradient>
	<path class="st3" d="M3328,0v1491.6c-250.8,273.4-311.6-715.4-1181.9-633.1C1149,952.7,1841.9,247.1,2111.7,0H3328z"/>
	<linearGradient id="SVGID_5_" gradientUnits="userSpaceOnUse" x1="1315.1523" y1="464.8803" x2="321.6379" y2="2185.6978">
		<stop  offset="0" style="stop-color:#027FFB"/>
		<stop  offset="7.956517e-02" style="stop-color:#076DED"/>
		<stop  offset="0.2496" style="stop-color:#114CD5"/>
		<stop  offset="0.4247" style="stop-color:#1932C2"/>
		<stop  offset="0.6046" style="stop-color:#1F20B4"/>
		<stop  offset="0.7922" style="stop-color:#2215AC"/>
		<stop  offset="1" style="stop-color:#2311A9"/>
	</linearGradient>
	<path class="st4" d="M1897.4,2000H0V179.7c469.8-67.6,1304.2-111.3,707.5,393.9C7.1,1166.5,2476.7,1345.6,1897.4,2000z"/>
	<linearGradient id="SVGID_6_" gradientUnits="userSpaceOnUse" x1="1966.1548" y1="713.0137" x2="3408.8679" y2="458.6244">
		<stop  offset="0" style="stop-color:#027FFB"/>
		<stop  offset="0.1127" style="stop-color:#0B62E6"/>
		<stop  offset="0.2569" style="stop-color:#1345D0"/>
		<stop  offset="0.4102" style="stop-color:#1A2EBF"/>
		<stop  offset="0.5747" style="stop-color:#1F1EB2"/>
		<stop  offset="0.7584" style="stop-color:#2214AB"/>
		<stop  offset="1" style="stop-color:#2311A9"/>
	</linearGradient>
	<path class="st5" d="M3328,0v1138.5c-155.2-215.9-388.7-505.6-876-459.6c-809.7,76.5-504.9-374.4-217.2-679H3328z"/>
	<linearGradient id="SVGID_7_" gradientUnits="userSpaceOnUse" x1="1149.6101" y1="687.0734" x2="293.6937" y2="2169.5642">
		<stop  offset="0" style="stop-color:#027FFB"/>
		<stop  offset="6.618559e-02" style="stop-color:#0670F0"/>
		<stop  offset="0.2446" style="stop-color:#114ED7"/>
		<stop  offset="0.4265" style="stop-color:#1933C3"/>
		<stop  offset="0.6111" style="stop-color:#1E20B4"/>
		<stop  offset="0.8001" style="stop-color:#2215AC"/>
		<stop  offset="1" style="stop-color:#2311A9"/>
	</linearGradient>
	<path class="st6" d="M1770.8,2000H0V289.4c462.6-23.1,900.5,36.7,392.2,418C-337,1254.4,2064.2,1439.3,1770.8,2000z"/>
</g>
<g id="Layer_4">
	<g>
		<path class="st7" d="M453.6,1832c-3.7,0-6.7,3-6.7,6.7s3,6.7,6.7,6.7c3.7,0,6.7-3,6.7-6.7S457.3,1832,453.6,1832z"/>
		<path class="st7" d="M453.6,1763.5c-3.7,0-6.7,3-6.7,6.7c0,3.7,3,6.7,6.7,6.7c3.7,0,6.7-3,6.7-6.7
			C460.3,1766.5,457.3,1763.5,453.6,1763.5z"/>
		<path class="st7" d="M453.6,1695.1c-3.7,0-6.7,3-6.7,6.7c0,3.7,3,6.7,6.7,6.7c3.7,0,6.7-3,6.7-6.7
			C460.3,1698.1,457.3,1695.1,453.6,1695.1z"/>
		<path class="st7" d="M405,1832c-3.7,0-6.7,3-6.7,6.7s3,6.7,6.7,6.7c3.7,0,6.7-3,6.7-6.7S408.7,1832,405,1832z"/>
		<path class="st7" d="M405,1763.5c-3.7,0-6.7,3-6.7,6.7c0,3.7,3,6.7,6.7,6.7c3.7,0,6.7-3,6.7-6.7
			C411.7,1766.5,408.7,1763.5,405,1763.5z"/>
		<path class="st7" d="M405,1695.1c-3.7,0-6.7,3-6.7,6.7c0,3.7,3,6.7,6.7,6.7c3.7,0,6.7-3,6.7-6.7
			C411.7,1698.1,408.7,1695.1,405,1695.1z"/>
		<circle class="st7" cx="356.4" cy="1838.7" r="6.7"/>
		<circle class="st7" cx="356.4" cy="1770.3" r="6.7"/>
		<circle class="st7" cx="356.4" cy="1701.8" r="6.7"/>
		<path class="st7" d="M307.8,1832c-3.7,0-6.7,3-6.7,6.7s3,6.7,6.7,6.7c3.7,0,6.7-3,6.7-6.7S311.5,1832,307.8,1832z"/>
		<path class="st7" d="M307.8,1763.5c-3.7,0-6.7,3-6.7,6.7c0,3.7,3,6.7,6.7,6.7c3.7,0,6.7-3,6.7-6.7
			C314.5,1766.5,311.5,1763.5,307.8,1763.5z"/>
		<path class="st7" d="M307.8,1695.1c-3.7,0-6.7,3-6.7,6.7c0,3.7,3,6.7,6.7,6.7c3.7,0,6.7-3,6.7-6.7
			C314.5,1698.1,311.5,1695.1,307.8,1695.1z"/>
		<path class="st7" d="M259.1,1832c-3.7,0-6.7,3-6.7,6.7s3,6.7,6.7,6.7c3.7,0,6.7-3,6.7-6.7S262.9,1832,259.1,1832z"/>
		<path class="st7" d="M259.1,1763.5c-3.7,0-6.7,3-6.7,6.7c0,3.7,3,6.7,6.7,6.7c3.7,0,6.7-3,6.7-6.7
			C265.9,1766.5,262.9,1763.5,259.1,1763.5z"/>
		<path class="st7" d="M259.1,1695.1c-3.7,0-6.7,3-6.7,6.7c0,3.7,3,6.7,6.7,6.7c3.7,0,6.7-3,6.7-6.7
			C265.9,1698.1,262.9,1695.1,259.1,1695.1z"/>
		<path class="st7" d="M210.5,1832c-3.7,0-6.7,3-6.7,6.7s3,6.7,6.7,6.7c3.7,0,6.7-3,6.7-6.7S214.3,1832,210.5,1832z"/>
		<path class="st7" d="M210.5,1763.5c-3.7,0-6.7,3-6.7,6.7c0,3.7,3,6.7,6.7,6.7c3.7,0,6.7-3,6.7-6.7
			C217.3,1766.5,214.3,1763.5,210.5,1763.5z"/>
		<path class="st7" d="M210.5,1695.1c-3.7,0-6.7,3-6.7,6.7c0,3.7,3,6.7,6.7,6.7c3.7,0,6.7-3,6.7-6.7
			C217.3,1698.1,214.3,1695.1,210.5,1695.1z"/>
		<circle class="st7" cx="161.9" cy="1838.7" r="6.7"/>
		<circle class="st7" cx="161.9" cy="1770.3" r="6.7"/>
		<circle class="st7" cx="161.9" cy="1701.8" r="6.7"/>
	</g>
	<g>
		<path class="st7" d="M294.7,618.7c0-3.7-3-6.7-6.7-6.7c-3.7,0-6.7,3-6.7,6.7c0,3.7,3,6.7,6.7,6.7
			C291.7,625.4,294.7,622.4,294.7,618.7z"/>
		<path class="st7" d="M363.1,618.7c0-3.7-3-6.7-6.7-6.7c-3.7,0-6.7,3-6.7,6.7c0,3.7,3,6.7,6.7,6.7
			C360.1,625.4,363.1,622.4,363.1,618.7z"/>
		<path class="st7" d="M431.5,618.7c0-3.7-3-6.7-6.7-6.7c-3.7,0-6.7,3-6.7,6.7c0,3.7,3,6.7,6.7,6.7
			C428.5,625.4,431.5,622.4,431.5,618.7z"/>
		<path class="st7" d="M294.7,570c0-3.7-3-6.7-6.7-6.7c-3.7,0-6.7,3-6.7,6.7c0,3.7,3,6.7,6.7,6.7C291.7,576.8,294.7,573.8,294.7,570
			z"/>
		<path class="st7" d="M363.1,570c0-3.7-3-6.7-6.7-6.7c-3.7,0-6.7,3-6.7,6.7c0,3.7,3,6.7,6.7,6.7C360.1,576.8,363.1,573.8,363.1,570
			z"/>
		<path class="st7" d="M431.5,570c0-3.7-3-6.7-6.7-6.7c-3.7,0-6.7,3-6.7,6.7c0,3.7,3,6.7,6.7,6.7C428.5,576.8,431.5,573.8,431.5,570
			z"/>
		<path class="st7" d="M294.7,521.4c0-3.7-3-6.7-6.7-6.7c-3.7,0-6.7,3-6.7,6.7c0,3.7,3,6.7,6.7,6.7
			C291.7,528.2,294.7,525.2,294.7,521.4z"/>
		<path class="st7" d="M363.1,521.4c0-3.7-3-6.7-6.7-6.7c-3.7,0-6.7,3-6.7,6.7c0,3.7,3,6.7,6.7,6.7
			C360.1,528.2,363.1,525.2,363.1,521.4z"/>
		<path class="st7" d="M431.5,521.4c0-3.7-3-6.7-6.7-6.7c-3.7,0-6.7,3-6.7,6.7c0,3.7,3,6.7,6.7,6.7
			C428.5,528.2,431.5,525.2,431.5,521.4z"/>
		<path class="st7" d="M294.7,472.8c0-3.7-3-6.7-6.7-6.7c-3.7,0-6.7,3-6.7,6.7c0,3.7,3,6.7,6.7,6.7
			C291.7,479.6,294.7,476.5,294.7,472.8z"/>
		<path class="st7" d="M363.1,472.8c0-3.7-3-6.7-6.7-6.7c-3.7,0-6.7,3-6.7,6.7c0,3.7,3,6.7,6.7,6.7
			C360.1,479.6,363.1,476.5,363.1,472.8z"/>
		<path class="st7" d="M431.5,472.8c0-3.7-3-6.7-6.7-6.7c-3.7,0-6.7,3-6.7,6.7c0,3.7,3,6.7,6.7,6.7
			C428.5,479.6,431.5,476.5,431.5,472.8z"/>
		<path class="st7" d="M294.7,424.2c0-3.7-3-6.7-6.7-6.7c-3.7,0-6.7,3-6.7,6.7c0,3.7,3,6.7,6.7,6.7
			C291.7,430.9,294.7,427.9,294.7,424.2z"/>
		<path class="st7" d="M363.1,424.2c0-3.7-3-6.7-6.7-6.7c-3.7,0-6.7,3-6.7,6.7c0,3.7,3,6.7,6.7,6.7
			C360.1,430.9,363.1,427.9,363.1,424.2z"/>
		<path class="st7" d="M431.5,424.2c0-3.7-3-6.7-6.7-6.7c-3.7,0-6.7,3-6.7,6.7c0,3.7,3,6.7,6.7,6.7
			C428.5,430.9,431.5,427.9,431.5,424.2z"/>
		<path class="st7" d="M294.7,375.6c0-3.7-3-6.7-6.7-6.7c-3.7,0-6.7,3-6.7,6.7c0,3.7,3,6.7,6.7,6.7
			C291.7,382.3,294.7,379.3,294.7,375.6z"/>
		<path class="st7" d="M363.1,375.6c0-3.7-3-6.7-6.7-6.7c-3.7,0-6.7,3-6.7,6.7c0,3.7,3,6.7,6.7,6.7
			C360.1,382.3,363.1,379.3,363.1,375.6z"/>
		<path class="st7" d="M431.5,375.6c0-3.7-3-6.7-6.7-6.7c-3.7,0-6.7,3-6.7,6.7c0,3.7,3,6.7,6.7,6.7
			C428.5,382.3,431.5,379.3,431.5,375.6z"/>
		<path class="st7" d="M294.7,327c0-3.7-3-6.7-6.7-6.7c-3.7,0-6.7,3-6.7,6.7c0,3.7,3,6.7,6.7,6.7C291.7,333.7,294.7,330.7,294.7,327
			z"/>
		<path class="st7" d="M363.1,327c0-3.7-3-6.7-6.7-6.7c-3.7,0-6.7,3-6.7,6.7c0,3.7,3,6.7,6.7,6.7C360.1,333.7,363.1,330.7,363.1,327
			z"/>
		<path class="st7" d="M431.5,327c0-3.7-3-6.7-6.7-6.7c-3.7,0-6.7,3-6.7,6.7c0,3.7,3,6.7,6.7,6.7C428.5,333.7,431.5,330.7,431.5,327
			z"/>
	</g>
	<g>
		<path class="st7" d="M3074.1,1796.6c-3.7,0-6.7,3-6.7,6.7c0,3.7,3,6.7,6.7,6.7c3.7,0,6.7-3,6.7-6.7
			C3080.8,1799.6,3077.8,1796.6,3074.1,1796.6z"/>
		<path class="st7" d="M3074.1,1728.2c-3.7,0-6.7,3-6.7,6.7c0,3.7,3,6.7,6.7,6.7c3.7,0,6.7-3,6.7-6.7
			C3080.8,1731.2,3077.8,1728.2,3074.1,1728.2z"/>
		<path class="st7" d="M3074.1,1659.7c-3.7,0-6.7,3-6.7,6.7c0,3.7,3,6.7,6.7,6.7c3.7,0,6.7-3,6.7-6.7
			C3080.8,1662.8,3077.8,1659.7,3074.1,1659.7z"/>
		<path class="st7" d="M3025.5,1796.6c-3.7,0-6.7,3-6.7,6.7c0,3.7,3,6.7,6.7,6.7c3.7,0,6.7-3,6.7-6.7
			C3032.2,1799.6,3029.2,1796.6,3025.5,1796.6z"/>
		<path class="st7" d="M3025.5,1728.2c-3.7,0-6.7,3-6.7,6.7c0,3.7,3,6.7,6.7,6.7c3.7,0,6.7-3,6.7-6.7
			C3032.2,1731.2,3029.2,1728.2,3025.5,1728.2z"/>
		<path class="st7" d="M3025.5,1659.7c-3.7,0-6.7,3-6.7,6.7c0,3.7,3,6.7,6.7,6.7c3.7,0,6.7-3,6.7-6.7
			C3032.2,1662.8,3029.2,1659.7,3025.5,1659.7z"/>
		<path class="st7" d="M2976.8,1796.6c-3.7,0-6.7,3-6.7,6.7c0,3.7,3,6.7,6.7,6.7c3.7,0,6.7-3,6.7-6.7
			C2983.6,1799.6,2980.6,1796.6,2976.8,1796.6z"/>
		<path class="st7" d="M2976.8,1728.2c-3.7,0-6.7,3-6.7,6.7c0,3.7,3,6.7,6.7,6.7c3.7,0,6.7-3,6.7-6.7
			C2983.6,1731.2,2980.6,1728.2,2976.8,1728.2z"/>
		<path class="st7" d="M2976.8,1659.7c-3.7,0-6.7,3-6.7,6.7c0,3.7,3,6.7,6.7,6.7c3.7,0,6.7-3,6.7-6.7
			C2983.6,1662.8,2980.6,1659.7,2976.8,1659.7z"/>
		<path class="st7" d="M2928.2,1796.6c-3.7,0-6.7,3-6.7,6.7c0,3.7,3,6.7,6.7,6.7c3.7,0,6.7-3,6.7-6.7
			C2935,1799.6,2932,1796.6,2928.2,1796.6z"/>
		<path class="st7" d="M2928.2,1728.2c-3.7,0-6.7,3-6.7,6.7c0,3.7,3,6.7,6.7,6.7c3.7,0,6.7-3,6.7-6.7
			C2935,1731.2,2932,1728.2,2928.2,1728.2z"/>
		<path class="st7" d="M2928.2,1659.7c-3.7,0-6.7,3-6.7,6.7c0,3.7,3,6.7,6.7,6.7c3.7,0,6.7-3,6.7-6.7
			C2935,1662.8,2932,1659.7,2928.2,1659.7z"/>
		<path class="st7" d="M2879.6,1796.6c-3.7,0-6.7,3-6.7,6.7c0,3.7,3,6.7,6.7,6.7c3.7,0,6.7-3,6.7-6.7
			C2886.4,1799.6,2883.3,1796.6,2879.6,1796.6z"/>
		<path class="st7" d="M2879.6,1728.2c-3.7,0-6.7,3-6.7,6.7c0,3.7,3,6.7,6.7,6.7c3.7,0,6.7-3,6.7-6.7
			C2886.4,1731.2,2883.3,1728.2,2879.6,1728.2z"/>
		<path class="st7" d="M2879.6,1659.7c-3.7,0-6.7,3-6.7,6.7c0,3.7,3,6.7,6.7,6.7c3.7,0,6.7-3,6.7-6.7
			C2886.4,1662.8,2883.3,1659.7,2879.6,1659.7z"/>
		<circle class="st7" cx="2831" cy="1803.3" r="6.7"/>
		<circle class="st7" cx="2831" cy="1734.9" r="6.7"/>
		<circle class="st7" cx="2831" cy="1666.5" r="6.7"/>
		<circle class="st7" cx="2782.4" cy="1803.3" r="6.7"/>
		<circle class="st7" cx="2782.4" cy="1734.9" r="6.7"/>
		<circle class="st7" cx="2782.4" cy="1666.5" r="6.7"/>
	</g>
	<g>
		<path class="st7" d="M2928.2,479.6c0-3.7-3-6.7-6.7-6.7s-6.7,3-6.7,6.7c0,3.7,3,6.7,6.7,6.7S2928.2,483.3,2928.2,479.6z"/>
		<path class="st7" d="M2996.7,479.6c0-3.7-3-6.7-6.7-6.7c-3.7,0-6.7,3-6.7,6.7c0,3.7,3,6.7,6.7,6.7
			C2993.6,486.3,2996.7,483.3,2996.7,479.6z"/>
		<path class="st7" d="M3065.1,479.6c0-3.7-3-6.7-6.7-6.7c-3.7,0-6.7,3-6.7,6.7c0,3.7,3,6.7,6.7,6.7
			C3062.1,486.3,3065.1,483.3,3065.1,479.6z"/>
		<path class="st7" d="M2928.2,430.9c0-3.7-3-6.7-6.7-6.7s-6.7,3-6.7,6.7c0,3.7,3,6.7,6.7,6.7S2928.2,434.7,2928.2,430.9z"/>
		<path class="st7" d="M2996.7,430.9c0-3.7-3-6.7-6.7-6.7c-3.7,0-6.7,3-6.7,6.7c0,3.7,3,6.7,6.7,6.7
			C2993.6,437.7,2996.7,434.7,2996.7,430.9z"/>
		<path class="st7" d="M3065.1,430.9c0-3.7-3-6.7-6.7-6.7c-3.7,0-6.7,3-6.7,6.7c0,3.7,3,6.7,6.7,6.7
			C3062.1,437.7,3065.1,434.7,3065.1,430.9z"/>
		<path class="st7" d="M2928.2,382.3c0-3.7-3-6.7-6.7-6.7s-6.7,3-6.7,6.7c0,3.7,3,6.7,6.7,6.7S2928.2,386.1,2928.2,382.3z"/>
		<path class="st7" d="M2996.7,382.3c0-3.7-3-6.7-6.7-6.7c-3.7,0-6.7,3-6.7,6.7c0,3.7,3,6.7,6.7,6.7
			C2993.6,389.1,2996.7,386.1,2996.7,382.3z"/>
		<path class="st7" d="M3065.1,382.3c0-3.7-3-6.7-6.7-6.7c-3.7,0-6.7,3-6.7,6.7c0,3.7,3,6.7,6.7,6.7
			C3062.1,389.1,3065.1,386.1,3065.1,382.3z"/>
		<path class="st7" d="M2928.2,333.7c0-3.7-3-6.7-6.7-6.7s-6.7,3-6.7,6.7c0,3.7,3,6.7,6.7,6.7S2928.2,337.4,2928.2,333.7z"/>
		<path class="st7" d="M2996.7,333.7c0-3.7-3-6.7-6.7-6.7c-3.7,0-6.7,3-6.7,6.7c0,3.7,3,6.7,6.7,6.7
			C2993.6,340.5,2996.7,337.4,2996.7,333.7z"/>
		<path class="st7" d="M3065.1,333.7c0-3.7-3-6.7-6.7-6.7c-3.7,0-6.7,3-6.7,6.7c0,3.7,3,6.7,6.7,6.7
			C3062.1,340.5,3065.1,337.4,3065.1,333.7z"/>
		<path class="st7" d="M2928.2,285.1c0-3.7-3-6.7-6.7-6.7s-6.7,3-6.7,6.7c0,3.7,3,6.7,6.7,6.7S2928.2,288.8,2928.2,285.1z"/>
		<path class="st7" d="M2996.7,285.1c0-3.7-3-6.7-6.7-6.7c-3.7,0-6.7,3-6.7,6.7c0,3.7,3,6.7,6.7,6.7
			C2993.6,291.8,2996.7,288.8,2996.7,285.1z"/>
		<path class="st7" d="M3065.1,285.1c0-3.7-3-6.7-6.7-6.7c-3.7,0-6.7,3-6.7,6.7c0,3.7,3,6.7,6.7,6.7
			C3062.1,291.8,3065.1,288.8,3065.1,285.1z"/>
		<path class="st7" d="M2928.2,236.5c0-3.7-3-6.7-6.7-6.7s-6.7,3-6.7,6.7c0,3.7,3,6.7,6.7,6.7S2928.2,240.2,2928.2,236.5z"/>
		<path class="st7" d="M2996.7,236.5c0-3.7-3-6.7-6.7-6.7c-3.7,0-6.7,3-6.7,6.7c0,3.7,3,6.7,6.7,6.7
			C2993.6,243.2,2996.7,240.2,2996.7,236.5z"/>
		<path class="st7" d="M3065.1,236.5c0-3.7-3-6.7-6.7-6.7c-3.7,0-6.7,3-6.7,6.7c0,3.7,3,6.7,6.7,6.7
			C3062.1,243.2,3065.1,240.2,3065.1,236.5z"/>
		<path class="st7" d="M2928.2,187.9c0-3.7-3-6.7-6.7-6.7s-6.7,3-6.7,6.7c0,3.7,3,6.7,6.7,6.7S2928.2,191.6,2928.2,187.9z"/>
		<path class="st7" d="M2996.7,187.9c0-3.7-3-6.7-6.7-6.7c-3.7,0-6.7,3-6.7,6.7c0,3.7,3,6.7,6.7,6.7
			C2993.6,194.6,2996.7,191.6,2996.7,187.9z"/>
		<path class="st7" d="M3065.1,187.9c0-3.7-3-6.7-6.7-6.7c-3.7,0-6.7,3-6.7,6.7c0,3.7,3,6.7,6.7,6.7
			C3062.1,194.6,3065.1,191.6,3065.1,187.9z"/>
	</g>
</g>
<g id="Layer_5">
</g>
</svg>
